<svg data-v-0dd9719b="" version="1.0" xmlns="http://www.w3.org/2000/svg" xmlns:xlink="http://www.w3.org/1999/xlink" width="100%" height="100%" viewBox="0 0 340.000000 250.000000" preserveAspectRatio="xMidYMid meet" color-interpolation-filters="sRGB" style="margin: auto;"> <rect data-v-0dd9719b="" x="0" y="0" width="100%" height="100%" fill="#fff" fill-opacity="1" class="background"></rect> <rect data-v-0dd9719b="" x="0" y="0" width="100%" height="100%" fill="url(#watermark)" fill-opacity="1" class="watermarklayer"></rect> <g data-v-0dd9719b="" fill="#29abe2" class="icon-text-wrapper icon-svg-group iconsvg" transform="translate(52.345001220703125,94.9202880859375)"><g class="iconsvg-imagesvg" transform="translate(0,0)"><g><rect fill="#29abe2" fill-opacity="0" stroke-width="2" x="0" y="0" width="60" height="60.159422469544296" class="image-rect"></rect> <svg x="0" y="0" width="60" height="60.159422469544296" filtersec="colorsb284407605" class="image-svg-svg primary" style="overflow: visible;"><svg xmlns="http://www.w3.org/2000/svg" viewBox="-0.022872131317853928 -0.01467225793749094 49.880008697509766 50.012306213378906"><g><g><path d="M2.19 21.15A22.68 22.68 0 1 0 44 9a24.94 24.94 0 1 1-38.71.67 22.56 22.56 0 0 0-3.1 11.48z" fill="#bed63a"></path><path d="M28.27 1.85a19.16 19.16 0 1 0 10.26 35.34A21.07 21.07 0 1 1 38 4.49a19.07 19.07 0 0 0-9.73-2.64z" fill="#29abe2"></path><path d="M37.36 34.19a15.75 15.75 0 1 0-26.51-14.58 17.32 17.32 0 1 1 19.34 18.68 15.69 15.69 0 0 0 7.17-4.1z" fill="#ffb300"></path></g></g></svg></svg> <!----></g></g> <g transform="translate(67,5.913461685180664)"><g data-gra="path-name" fill-rule="" class="tp-name iconsvg-namesvg" transform="translate(0,0)"><g transform="scale(1)"><g><path d="M15.07-26.01L9.22-30.69 5.67-23.94 13.18-21.51 15.07-26.01ZM12.96-12.78L13.68-17.14 6.75-20.43 5.35-12.91 12.96-12.78ZM34.38-4.14L31.72-3.87 31.86-17.05 27.04-16.83 27.58-20.75 32.49-20.56 31.99-18.13 37.75-17.59 37.89-26.14 34.29-26.1 28.35-26.05 29.07-30.96 22.41-30.96 22-26.05 15.75-26.01 14.98-17.77 20.52-17.59 20.65-21.02 21.6-20.97 20.61-8.87 13.86-5.76 14.76-9.58 11.34-11.74 5.35-3.28 12.55 0 13.72-5.13 18.22 1.3 25.52-6.12 26.41-12.51 27.58 1.13 37.3 1.13 39.64-7.79 34.34-8.59 34.38-4.14ZM59.85-11.61L57.73-10.8 57.91-24.03 60.66-24.52 58.5-17.19 59.85-11.61ZM52.65 0.63L57.55 0.58 57.69-8.41 59.85-4.09 65.43-8.14 63.27-17.23 66.28-29.7 52.02-30.33 52.65 0.63ZM77.89-23.36L77.67-18.54 71.41-18.27 71.37-23.45 77.89-23.36ZM71.41-12.51L77.4-12.01 77.22-7.42 71.46-7.83 71.41-12.51ZM82.94-1.08L82.89-5.49 82.8-29.97 66.69-29.47 66.24-1.44 66.24-1.4 82.94-1.08ZM95.89-13.99L97.47-7.02 99.63-8.01 99.77-5.71 96.53-5.54 97.97 0.99 104.13-2.11 104.27-10.21 106.29-11.21 105.44-16.16 104.4-15.93 104.44-19.44 105.66-19.57 105.57-24.7 104.53-24.79 104.67-30.73 98.41-29.79 98.69-25.47 96.25-25.74 96.34-18.77 99-18.99 99.27-14.76 95.89-13.99ZM118.75-15.12L122.35-15.03 122.35-14.54 118.71-14.58 118.75-15.12ZM118.98-20.29L122.31-20.43 122.31-19.3 118.94-19.26 118.98-20.29ZM127.03-11.47L127.08-14.94 128.75-14.89 129.1-19.44 127.13-19.39 127.17-23.8 119.11-24.03 119.16-24.7 127.66-24.34 127.98-30.46 119.38-30.11 119.43-31.23 113.13-31.41 113.17-29.83 106.38-29.56 106.56-25.29 113.36-24.97 113.4-24.16 108.31-24.3 108.31-19.8 113.53-20.02 113.53-19.21 106.97-19.08 107.14-15.34 113.67-15.21 113.72-14.63 108.22-14.67 107.91-10.75 113.85-10.93 114.03-4.41 113.63-4.41 112.09-5.58 112.55-9.4 107.59-9.95 107.14-4.41 103.81-1.84 108.81 1.67 110.61-1.4 113.04-0.36 128.34 0.49 128.52-5.13 118.31-4.63 118.35-6.08 126.85-5.35 127.03-10.3 118.53-9.99 118.58-11.16 127.03-11.47ZM153.27-18.5L148.37-18.95 148.46-7.02 151.16-6.52 153.27-18.5ZM154.17-19.53L154.13-16.7 173.61-16.2 173.66-20.2 166.28-19.93 166.37-20.52 172.57-20.47 172.84-24.25 166.77-23.98 166.81-24.66 173.2-24.61 173.52-28.39 167.22-28.13 167.35-29.61 160.43-29.88 160.6-27.86 154.31-27.58 154.31-24.79 160.88-24.7 160.97-23.71 154.98-23.45 154.98-20.65 161.19-20.61 161.28-19.75 154.17-19.53ZM159.7-5.58L159.66-6.93 168.07-6.79 168.03-6.03 159.7-5.58ZM168.3-11.47L168.3-10.8 159.62-10.21 159.57-11.47 168.3-11.47ZM172.53 1.84L172.22-15.79 155.56-15.48 154.98 1.75 159.88 1.71 159.75-2.21 167.81-1.98 167.76-1.17 164.03-1.17 164.56 1.84 167.63 1.84 167.63 1.84 172.53 1.84ZM141.34-23.71L141.34-19.75 153.76-19.48 153.94-24.79 147.1-24.21 149.9-25.83 148.63-31.54 143.32-28.3 146.07-24.12 141.34-23.71ZM145.4-5.89L147.69-6.88 146.84-18.95 141.84-18 145.13-5.89 141.75-5.67 142.65 0.49 154.49-3.24 154.03-6.52 145.4-5.89Z" transform="translate(-5.349999904632568, 31.540000915527344)"></path></g> <!----> <!----> <!----> <!----> <!----> <!----> <!----></g></g> <g data-gra="path-slogan" fill-rule="" class="tp-slogan iconsvg-slogansvg" fill="#29abe2" transform="translate(5,39.380001068115234)"><rect x="0" height="1" y="3.9750003814697266" width="19.389175415039062"></rect> <rect height="1" y="3.9750003814697266" width="19.389175415039062" x="138.9208221435547"></rect> <g transform="translate(22.389175415039062,0)"><g transform="scale(1)"><path d="M7.17-6.09L7.17-6.09L6.09-6.09Q6-7.73 3.94-7.83L3.94-7.83Q2.02-7.78 2.02-6.33L2.02-6.33Q2.02-5.39 3.05-5.25L3.05-5.25L5.48-4.69Q7.41-4.22 7.41-2.34L7.41-2.34Q7.36 0.05 4.03 0.14L4.03 0.14Q2.20 0.14 1.45-0.61L1.45-0.61Q0.52-1.31 0.56-2.77L0.56-2.77L1.69-2.77Q1.73-0.80 4.03-0.75L4.03-0.75Q6.28-0.80 6.33-2.20L6.33-2.20Q6.52-3.38 4.45-3.75L4.45-3.75L2.67-4.13Q0.84-4.64 0.84-6.19L0.84-6.19Q0.98-8.72 3.84-8.81L3.84-8.81Q7.08-8.81 7.17-6.09ZM10.03-5.06L14.53-5.06L14.53-8.58L15.70-8.58L15.70 0L14.53 0L14.53-3.98L10.03-3.98L10.03 0L8.86 0L8.86-8.58L10.03-8.58L10.03-5.06ZM18.80-1.03L23.95-1.03L23.95 0L17.63 0L17.63-8.58L23.86-8.58L23.86-7.59L18.80-7.59L18.80-4.92L23.48-4.92L23.48-3.89L18.80-3.89L18.80-1.03ZM26.86-8.58L31.17-1.64L31.17-8.58L32.30-8.58L32.30 0L30.98 0L26.63-6.94L26.58-6.94L26.58 0L25.45 0L25.45-8.58L26.86-8.58ZM41.02-8.58L37.78-3.47L37.78 0L36.61 0L36.61-3.47L33.38-8.58L34.73-8.58L37.17-4.45L39.66-8.58L41.02-8.58ZM47.72 0L46.88-2.48L43.41-2.48L42.52 0L41.34 0L44.58-8.58L45.89-8.58L48.98 0L47.72 0ZM45.14-7.31L43.78-3.52L46.45-3.52L45.19-7.31L45.14-7.31ZM51.42-8.58L55.73-1.64L55.73-8.58L56.86-8.58L56.86 0L55.55 0L51.19-6.94L51.14-6.94L51.14 0L50.02 0L50.02-8.58L51.42-8.58ZM65.06-3.61L62.44-3.61L62.44-4.59L66.19-4.59L66.19 0L65.44 0L65.16-1.08Q64.17 0.09 62.34 0.14L62.34 0.14Q60.61 0.14 59.67-0.75L59.67-0.75Q58.27-2.06 58.31-4.36L58.31-4.36Q58.64-8.63 62.39-8.81L62.39-8.81Q65.58-8.63 66.05-6L66.05-6L64.92-6Q64.45-7.78 62.34-7.83L62.34-7.83Q59.67-7.64 59.53-4.31L59.53-4.31Q59.53-0.75 62.39-0.75L62.39-0.75Q63.42-0.75 64.17-1.31L64.17-1.31Q65.11-2.06 65.06-3.61L65.06-3.61ZM70.59-1.92L70.59-2.77L71.67-2.77L71.67-2.16Q71.67-0.75 72.98-0.75L72.98-0.75Q74.34-0.75 74.34-2.25L74.34-2.25L74.34-8.58L75.52-8.58L75.52-2.30Q75.47 0.09 73.03 0.14L73.03 0.14Q70.73 0.09 70.59-1.92L70.59-1.92ZM77.48-8.58L78.66-8.58L78.66 0L77.48 0L77.48-8.58ZM81.94-1.03L87.09-1.03L87.09 0L80.77 0L80.77-8.58L87-8.58L87-7.59L81.94-7.59L81.94-4.92L86.63-4.92L86.63-3.89L81.94-3.89L81.94-1.03ZM87.89-1.92L87.89-2.77L88.97-2.77L88.97-2.16Q88.97-0.75 90.28-0.75L90.28-0.75Q91.64-0.75 91.64-2.25L91.64-2.25L91.64-8.58L92.81-8.58L92.81-2.30Q92.77 0.09 90.33 0.14L90.33 0.14Q88.03 0.09 87.89-1.92L87.89-1.92ZM94.78-8.58L95.95-8.58L95.95 0L94.78 0L94.78-8.58ZM99.33-8.58L103.64-1.64L103.64-8.58L104.77-8.58L104.77 0L103.45 0L99.09-6.94L99.05-6.94L99.05 0L97.92 0L97.92-8.58L99.33-8.58ZM112.97-3.61L110.34-3.61L110.34-4.59L114.09-4.59L114.09 0L113.34 0L113.06-1.08Q112.08 0.09 110.25 0.14L110.25 0.14Q108.52 0.14 107.58-0.75L107.58-0.75Q106.17-2.06 106.22-4.36L106.22-4.36Q106.55-8.63 110.30-8.81L110.30-8.81Q113.48-8.63 113.95-6L113.95-6L112.83-6Q112.36-7.78 110.25-7.83L110.25-7.83Q107.58-7.64 107.44-4.31L107.44-4.31Q107.44-0.75 110.30-0.75L110.30-0.75Q111.33-0.75 112.08-1.31L112.08-1.31Q113.02-2.06 112.97-3.61L112.97-3.61Z" transform="translate(-0.5602678571428572, 8.8125)"></path></g></g></g></g></g><defs v-gra="od"></defs></svg>